<?xml version="1.0" encoding="UTF-8" standalone="no"?>
<!DOCTYPE svg PUBLIC "-//W3C//DTD SVG 1.1//EN" "http://www.w3.org/Graphics/SVG/1.1/DTD/svg11.dtd">
<svg width="100%" height="100%" viewBox="0 0 400 400" version="1.1" xmlns="http://www.w3.org/2000/svg" xmlns:xlink="http://www.w3.org/1999/xlink" xml:space="preserve" xmlns:serif="http://www.serif.com/" style="fill-rule:evenodd;clip-rule:evenodd;stroke-linejoin:round;stroke-miterlimit:2;">
    <g transform="matrix(1,0,0,1,10.1376,2.40813)">
        <g transform="matrix(1,0,0,1,16.948,-3.80793)">
            <g transform="matrix(0.741322,0.67115,-0.67115,0.741322,139.714,7.66444)">
                <path d="M81.512,25.461L29.539,-31.945L31.406,175.562L83.398,175.562L81.512,25.461Z"/>
            </g>
            <g transform="matrix(-0.671417,0.74108,-0.74108,-0.671417,230.483,215.7)">
                <rect x="31.406" y="-15.405" width="51.992" height="190.967"/>
            </g>
        </g>
        <g transform="matrix(-1,0.000593266,-0.000593266,-1,361.087,400.122)">
            <g transform="matrix(0.741322,0.67115,-0.67115,0.741322,139.714,7.66444)">
                <path d="M81.512,25.461L29.539,-31.945L31.406,175.562L83.398,175.562L81.512,25.461Z"/>
            </g>
            <g transform="matrix(-0.671417,0.74108,-0.74108,-0.671417,230.483,215.7)">
                <rect x="31.406" y="-15.405" width="51.992" height="190.967"/>
            </g>
        </g>
    </g>
</svg>
